<?xml version="1.0" encoding="utf-8"?>
<!-- Generator: Adobe Illustrator 23.0.5, SVG Export Plug-In . SVG Version: 6.00 Build 0)  -->
<svg version="1.1" id="Layer_1" xmlns="http://www.w3.org/2000/svg" xmlns:xlink="http://www.w3.org/1999/xlink" x="0px" y="0px"
	 viewBox="0 0 100 100" style="enable-background:new 0 0 100 100;" xml:space="preserve">
<style type="text/css">
	.st0{fill:#0B8EA0;}
</style>
<g id="SVGRepo_iconCarrier">
	<g>
		<g>
			<polygon class="st0" points="38.16,16.28 35.37,25.77 33.85,20.95 30.12,20.95 28.6,25.77 25.81,16.28 22.05,17.39 26.65,33.05 
				30.4,33.09 31.98,28.05 33.57,33.09 37.32,33.05 41.92,17.39 			"/>
		</g>
	</g>
	<g>
		<g>
			<polygon class="st0" points="60.09,16.28 57.3,25.77 55.78,20.95 52.05,20.95 50.53,25.77 47.74,16.28 43.98,17.39 48.58,33.05 
				52.33,33.09 53.92,28.05 55.5,33.09 59.25,33.05 63.85,17.39 			"/>
		</g>
	</g>
	<g>
		<g>
			<polygon class="st0" points="82.03,16.28 79.24,25.77 77.72,20.95 73.98,20.95 72.46,25.77 69.67,16.28 65.91,17.39 70.52,33.05 
				74.26,33.09 75.85,28.05 77.44,33.09 81.18,33.05 85.79,17.39 			"/>
		</g>
	</g>
	<g>
		<g>
			<path class="st0" d="M97,9H10.83v17.04C5.72,33.07,3,41.38,3,50.13C3,60.97,7.19,71.2,14.79,78.91
				c7.78,7.96,18.2,12.34,29.34,12.34s21.56-4.38,29.33-12.33c7.6-7.72,11.79-17.94,11.79-28.79c0-3.32-0.41-6.6-1.19-9.79H97L97,9
				L97,9z M10.83,33.54v6.79h11.1c-0.34,2.56-0.54,5.18-0.61,7.83H6.99C7.26,43.02,8.56,38.07,10.83,33.54z M7.01,52.08h14.32
				c0.16,6.2,1.02,12,2.49,17.13c-2.68,1.53-5.19,3.39-7.5,5.54C10.7,68.45,7.45,60.53,7.01,52.08z M19.07,77.54
				c1.86-1.71,3.87-3.21,5.99-4.49c1.84,5.02,4.3,9.21,7.18,12.31C27.38,83.73,22.92,81.08,19.07,77.54z M42.17,87.12
				c-5.54-1.18-10.44-7.29-13.54-15.96c4.22-1.94,8.79-3.06,13.54-3.31C42.17,67.85,42.17,87.12,42.17,87.12z M42.17,63.93
				c-5.16,0.24-10.13,1.41-14.73,3.45c-1.27-4.64-2.04-9.84-2.19-15.3h16.92V63.93z M42.17,48.17H25.23
				c0.07-2.66,0.29-5.28,0.65-7.83h16.28V48.17z M46.08,87.12V67.85c4.75,0.25,9.32,1.37,13.54,3.31
				C56.52,79.84,51.62,85.94,46.08,87.12z M63,52.08c-0.15,5.46-0.92,10.66-2.19,15.3c-4.6-2.05-9.57-3.21-14.73-3.45V52.08H63z
				 M46.08,48.17v-7.83h16.28c0.36,2.55,0.58,5.17,0.65,7.83C63.02,48.17,46.08,48.17,46.08,48.17z M56.02,85.36
				c2.88-3.11,5.33-7.29,7.18-12.31c2.13,1.28,4.13,2.78,5.99,4.49C65.33,81.08,60.87,83.73,56.02,85.36z M71.93,74.75
				c-2.32-2.14-4.82-4-7.5-5.54c1.47-5.14,2.34-10.94,2.49-17.13h14.32C80.8,60.53,77.55,68.44,71.93,74.75z M66.93,48.17
				c-0.07-2.65-0.27-5.27-0.61-7.83H80c0.7,2.55,1.12,5.17,1.26,7.83C81.26,48.17,66.93,48.17,66.93,48.17z M93.08,36.42H14.75
				v-23.5h78.33V36.42z"/>
		</g>
	</g>
</g>
</svg>
