<?xml version="1.0" encoding="utf-8"?>
<!-- Generator: Adobe Illustrator 23.0.5, SVG Export Plug-In . SVG Version: 6.00 Build 0)  -->
<svg version="1.1" id="Layer_1" xmlns="http://www.w3.org/2000/svg" xmlns:xlink="http://www.w3.org/1999/xlink" x="0px" y="0px"
	 viewBox="0 0 100 100" style="enable-background:new 0 0 100 100;" xml:space="preserve">
<style type="text/css">
	.st0{fill:#66CCFF;}
	.st1{fill:#0B8EA0;}
	.st2{fill-rule:evenodd;clip-rule:evenodd;fill:#0B8EA0;}
</style>
<g id="SvgjsG1041">
	<g>
		<path class="st0" d="M52.11,2.2c-0.84,0-1.52,0.68-1.52,1.52v3.8c-1.42,0.41-2.79,0.97-4.09,1.68l-2.67-2.67
			c-0.59-0.59-1.56-0.59-2.15,0l-6.06,6.06c-0.59,0.59-0.6,1.56,0,2.15c0,0,0,0,0,0l2.68,2.68c-0.7,1.29-1.27,2.66-1.68,4.08h-3.79
			c-0.84,0-1.52,0.68-1.52,1.52v5.04c0,0.84,0.68,1.52,1.52,1.52c0.84,0,1.52-0.68,1.52-1.52v-3.52h3.27c0.71,0,1.33-0.49,1.48-1.19
			c0.45-1.95,1.22-3.8,2.28-5.5c0.38-0.6,0.29-1.39-0.21-1.89l-2.31-2.31l3.91-3.91l2.29,2.29c0.5,0.5,1.28,0.6,1.89,0.22
			c1.69-1.06,3.56-1.82,5.5-2.26c0.69-0.16,1.18-0.77,1.19-1.48V5.24h5.53v3.27c0,0.71,0.49,1.32,1.18,1.48
			c1.95,0.44,3.81,1.21,5.5,2.27c0.6,0.38,1.38,0.29,1.89-0.21l2.3-2.31l3.91,3.91l-2.29,2.29c-0.5,0.5-0.59,1.28-0.21,1.89
			c1.06,1.69,1.82,3.56,2.26,5.51c0.16,0.69,0.77,1.19,1.48,1.19h3.27v3.52c0,0.84,0.68,1.52,1.52,1.52s1.52-0.68,1.52-1.52v-5.04
			c0-0.84-0.68-1.52-1.52-1.52h-3.8c-0.41-1.42-0.97-2.79-1.67-4.09l2.67-2.66c0.59-0.59,0.6-1.56,0-2.15c0,0,0,0,0,0L71.1,6.52
			c-0.59-0.59-1.56-0.59-2.15,0l-2.68,2.69c-1.29-0.71-2.66-1.27-4.08-1.69V3.72c0-0.84-0.68-1.52-1.52-1.52L52.11,2.2L52.11,2.2z
			 M56.39,13.6c-7.55,0.02-13.66,6.14-13.69,13.69c0,0.84,0.68,1.52,1.52,1.52c0.84,0,1.52-0.68,1.52-1.52
			c0-5.87,4.77-10.64,10.64-10.64s10.64,4.77,10.64,10.64c0,0.84,0.68,1.52,1.52,1.52c0.84,0,1.52-0.68,1.52-1.52
			C70.08,19.76,63.92,13.6,56.39,13.6z"/>
		<path class="st1" d="M10.01,18.95v3.04h10.13l10.59,44.43c0.16,0.69,0.78,1.17,1.48,1.17h44.37c0.67,0,1.26-0.44,1.45-1.09
			l10.99-36.5c0.24-0.8-0.22-1.65-1.02-1.89c-0.14-0.04-0.29-0.06-0.43-0.06H24.71l-1.89-7.93c-0.16-0.69-0.77-1.17-1.48-1.17H10.01
			z M25.44,31.09h60.08L75.45,64.55H33.41L25.44,31.09z"/>
		<path class="st1" d="M21.26,18.88c-0.84,0.04-1.49,0.75-1.44,1.59c0,0.1,0.02,0.2,0.05,0.3l14.21,59.19
			c0.16,0.68,0.78,1.16,1.48,1.16h35.14c0.84,0,1.52-0.68,1.52-1.52c0-0.84-0.68-1.52-1.52-1.52H36.76L22.83,20.06
			C22.66,19.33,22,18.83,21.26,18.88L21.26,18.88z"/>
		<path class="st1" d="M36.54,78.06c-5.5,0.01-9.96,4.47-9.97,9.98c0.01,5.5,4.47,9.96,9.97,9.97c5.5-0.02,9.95-4.47,9.97-9.97
			C46.5,82.53,42.04,78.07,36.54,78.06L36.54,78.06z M36.54,81.1c3.81-0.01,6.91,3.07,6.92,6.88c0,0.02,0,0.03,0,0.05
			c0.01,3.81-3.07,6.91-6.88,6.93c-0.02,0-0.03,0-0.05,0c-3.81,0.01-6.91-3.07-6.93-6.88c0-0.02,0-0.03,0-0.05
			c-0.02-3.81,3.06-6.92,6.87-6.93C36.5,81.09,36.52,81.09,36.54,81.1L36.54,81.1z M70,78.06c-5.5,0.01-9.96,4.47-9.97,9.98
			c0.01,5.5,4.47,9.96,9.97,9.97c5.5-0.02,9.95-4.47,9.97-9.97C79.95,82.53,75.5,78.07,70,78.06L70,78.06z M70,81.1
			c3.81-0.01,6.91,3.07,6.92,6.88c0,0.02,0,0.03,0,0.05c0.01,3.81-3.07,6.91-6.88,6.93c-0.02,0-0.03,0-0.05,0
			c-3.81,0.01-6.91-3.07-6.93-6.88c0-0.02,0-0.03,0-0.05c-0.02-3.81,3.06-6.92,6.87-6.93C69.96,81.09,69.98,81.09,70,81.1L70,81.1z"
			/>
		<path class="st2" d="M46.51,37.17v3.04h38.32v-3.04H46.51z M52.59,46.3v3.04H83V46.3H52.59z M58.67,55.42v3.04h21.29v-3.04H58.67z
			"/>
	</g>
</g>
</svg>
