<?xml version="1.0" encoding="UTF-8"?>
<svg version="1.1" xmlns="http://www.w3.org/2000/svg" width="512" height="512">
<path d="M0 0 C1.28095047 0.00015106 2.56190094 0.00030212 3.88166809 0.00045776 C5.26966509 0.01066948 6.65766049 0.02110145 8.0456543 0.03173828 C9.47340191 0.03547128 10.9011521 0.0383169 12.3289032 0.04031372 C16.07556304 0.0479276 19.82206631 0.06755659 23.56866455 0.08972168 C27.39625938 0.11022865 31.22387966 0.11932579 35.05151367 0.12939453 C42.55353795 0.15080479 50.05543351 0.18491337 57.55737305 0.22705078 C57.68751801 0.98571945 57.81766296 1.74438812 57.95175171 2.52604675 C58.1263089 3.51945572 58.30086609 4.51286469 58.48071289 5.53637695 C58.65210785 6.52192062 58.82350281 7.50746429 59.00009155 8.52287292 C60.54373482 16.01331714 65.22275884 21.87132932 71.51049805 26.04345703 C79.91064993 30.90079677 88.9455036 31.87558659 98.47143555 29.50048828 C106.7404164 26.42772501 111.59121998 21.66835642 116.26049805 14.31298828 C117.52203602 11.31113586 118.08508555 8.7298631 118.63842773 5.53417969 C118.81235046 4.54108795 118.98627319 3.54799622 119.16546631 2.52481079 C119.29479553 1.76654999 119.42412476 1.00828918 119.55737305 0.22705078 C127.76371272 0.13407961 135.96982974 0.06314944 144.17656708 0.01980209 C147.98793739 -0.00101001 151.79894551 -0.02920919 155.61010742 -0.07470703 C159.29300969 -0.11839501 162.97556513 -0.14213421 166.65870667 -0.15245819 C168.05885777 -0.15980871 169.45899141 -0.1741622 170.85899353 -0.19586945 C180.05506814 -0.33269342 186.64937102 -0.07386389 193.79956055 6.19189453 C194.33838867 6.84287109 194.8772168 7.49384766 195.43237305 8.16455078 C195.98666992 8.81294922 196.5409668 9.46134766 197.11206055 10.12939453 C200.06566284 14.4161092 200.8077629 18.12505233 200.81464195 23.28602314 C200.82109084 24.51023324 200.82753974 25.73444335 200.83418405 26.99575073 C200.83124188 28.35111552 200.82810646 29.70647992 200.82479858 31.06184387 C200.82853531 32.50414016 200.83313692 33.94643442 200.83852923 35.38872546 C200.85077197 39.35255785 200.85049727 43.31630593 200.84814048 47.28015292 C200.84773263 51.55498154 200.85876837 55.829783 200.86825562 60.104599 C200.88487359 68.48002099 200.89036552 76.85541483 200.89148037 85.23085193 C200.89243047 92.0384491 200.89653886 98.84603698 200.90288162 105.65363121 C200.92049623 124.95170482 200.92972015 144.24975618 200.92822067 163.54783789 C200.92814076 164.58835754 200.92806085 165.62887719 200.92797852 166.70092773 C200.92789675 167.74271691 200.92781499 168.78450609 200.92773075 169.85786464 C200.9269178 186.74274768 200.9460573 203.62754152 200.97425525 220.51239876 C201.00297598 237.84699227 201.01679599 255.18154227 201.0150677 272.51616019 C201.01440351 282.24929965 201.01990822 291.9823456 201.0414238 301.71546364 C201.05962492 310.00236151 201.06399174 318.28912349 201.05040495 326.57603268 C201.04386988 330.80388497 201.04377744 335.03147648 201.06111145 339.25930405 C201.07682359 343.13138453 201.07399788 347.00299706 201.05654319 350.875066 C201.05346916 352.27410958 201.05712094 353.67318792 201.06826334 355.0721905 C201.13498704 364.04574159 200.70598029 370.49285484 194.5925293 377.46923828 C193.94155273 378.00806641 193.29057617 378.54689453 192.61987305 379.10205078 C191.97147461 379.65634766 191.32307617 380.21064453 190.6550293 380.78173828 C185.87138158 384.07773392 181.48504334 384.51897049 175.79679871 384.49447632 C175.02229616 384.49900743 174.24779361 384.50353854 173.44982129 384.50820696 C170.85825096 384.52085288 168.26689072 384.51923048 165.67529297 384.51757812 C163.81563548 384.52356328 161.95598047 384.53036879 160.09632874 384.53793335 C155.04664865 384.55560242 149.99703634 384.56028913 144.94732833 384.56156492 C141.79151629 384.56298663 138.63572147 384.5672566 135.47991371 384.57255936 C124.46755504 384.591063 113.45524479 384.59922959 102.44287109 384.59765625 C92.18238155 384.59645493 81.9221024 384.61755462 71.6616661 384.64914358 C62.84876428 384.67530781 54.03593117 384.68602347 45.22299081 384.68474543 C39.96112283 384.68423582 34.69944179 384.68991861 29.43761253 384.71110153 C24.4873049 384.73048617 19.53736248 384.73060675 14.58704185 384.71606827 C12.77304042 384.71397932 10.95901612 384.71868618 9.14505386 384.73078918 C6.66257533 384.74627614 4.18135076 384.73691161 1.69889832 384.7215271 C0.98633147 384.73181423 0.27376462 384.74210135 -0.46039516 384.75270021 C-6.8528301 384.66555648 -11.92839301 382.43029063 -16.68481445 378.26220703 C-17.22364258 377.61123047 -17.7624707 376.96025391 -18.31762695 376.28955078 C-18.87192383 375.64115234 -19.4262207 374.99275391 -19.99731445 374.32470703 C-22.95091674 370.03799236 -23.69301681 366.32904924 -23.69989586 361.16807842 C-23.70634475 359.94386832 -23.71279364 358.71965822 -23.71943796 357.45835084 C-23.71649579 356.10298604 -23.71336036 354.74762165 -23.71005249 353.39225769 C-23.71378921 351.94996141 -23.71839082 350.50766715 -23.72378314 349.0653761 C-23.73602588 345.10154371 -23.73575117 341.13779564 -23.73339438 337.17394865 C-23.73298654 332.89912003 -23.74402228 328.62431856 -23.75350952 324.34950256 C-23.77012749 315.97408057 -23.77561943 307.59868673 -23.77673428 299.22324964 C-23.77768438 292.41565246 -23.78179277 285.60806459 -23.78813553 278.80047035 C-23.80575014 259.50239674 -23.81497406 240.20434538 -23.81347458 220.90626367 C-23.81339467 219.86574402 -23.81331476 218.82522437 -23.81323242 217.75317383 C-23.81315066 216.71138465 -23.8130689 215.66959547 -23.81298466 214.59623692 C-23.8121717 197.71135388 -23.83131121 180.82656004 -23.85950916 163.94170281 C-23.88822988 146.60710929 -23.9020499 129.27255929 -23.9003216 111.93794137 C-23.89965742 102.20480192 -23.90516213 92.47175596 -23.9266777 82.73863792 C-23.94487883 74.45174006 -23.94924564 66.16497808 -23.93565886 57.87806889 C-23.92912378 53.6502166 -23.92903134 49.42262508 -23.94636536 45.19479752 C-23.96207749 41.32271703 -23.95925178 37.4511045 -23.94179709 33.57903556 C-23.93872307 32.17999198 -23.94237484 30.78091364 -23.95351724 29.38191106 C-24.02024094 20.40835997 -23.5912342 13.96124672 -17.4777832 6.98486328 C-16.82680664 6.44603516 -16.17583008 5.90720703 -15.50512695 5.35205078 C-14.85672852 4.79775391 -14.20833008 4.24345703 -13.5402832 3.67236328 C-9.11124271 0.62069665 -5.33085637 -0.02102902 0 0 Z M56.36987305 133.10205078 C55.41725586 133.92447266 54.46463867 134.74689453 53.4831543 135.59423828 C49.73700251 138.96527474 46.00710688 142.35264995 42.29956055 145.76611328 C39.65721422 148.13744973 36.95043138 150.37958076 34.18237305 152.60205078 C29.97922905 155.99091047 25.99534128 159.53944344 22.05737305 163.22705078 C17.2636087 167.71568677 12.32841845 171.93616182 7.2097168 176.05517578 C-1.98994244 182.61780188 -1.98994244 182.61780188 -6.75512695 192.03955078 C-6.28713188 196.81310053 -3.64349969 199.18255212 -0.1027832 202.26220703 C1.18305664 203.26574219 1.18305664 203.26574219 2.49487305 204.28955078 C6.85337796 207.77751543 10.98767957 211.40752109 15.05737305 215.22705078 C18.95272767 218.87633482 22.89076219 222.3840723 27.05737305 225.72705078 C31.22405248 229.07008428 35.16143426 232.57832785 39.05737305 236.22705078 C44.69054578 241.49937971 50.51510427 246.42422176 56.55737305 251.22705078 C57.42233398 251.95923828 58.28729492 252.69142578 59.1784668 253.44580078 C61.48251701 255.45721851 61.48251701 255.45721851 64.61987305 255.72705078 C67.62032383 255.42700706 67.62032383 255.42700706 69.93237305 253.60205078 C72.05708183 250.49670717 72.16123597 248.92571118 71.55737305 245.22705078 C68.97821299 241.57762702 66.12954152 238.9036755 62.61987305 236.16455078 C58.26136813 232.67658613 54.12706652 229.04658047 50.05737305 225.22705078 C46.16201842 221.57776674 42.22398391 218.07002926 38.05737305 214.72705078 C33.21858619 210.84468593 28.66448688 206.72177333 24.1472168 202.47509766 C20.71706314 199.2571631 17.1962703 196.20779173 13.55737305 193.22705078 C15.05284385 189.62983722 17.08443613 187.59607857 19.99487305 185.03955078 C20.89463867 184.24806641 21.7944043 183.45658203 22.72143555 182.64111328 C25.40579549 180.35607961 28.12590573 178.12742765 30.86987305 175.91455078 C35.0913368 172.50284595 39.09831372 168.9340745 43.05737305 165.22705078 C47.85116107 160.7384376 52.78632507 156.51794181 57.9050293 152.39892578 C67.12931487 145.8147579 67.12931487 145.8147579 71.86987305 136.35205078 C71.80522222 133.18180311 71.80522222 133.18180311 69.93237305 130.85205078 C64.6892921 127.26467961 60.76075235 129.26252244 56.36987305 133.10205078 Z M107.18237305 130.85205078 C105.05766426 133.95739439 104.95351012 135.52839038 105.55737305 139.22705078 C108.13653311 142.87647454 110.98520457 145.55042606 114.49487305 148.28955078 C118.85337796 151.77751543 122.98767957 155.40752109 127.05737305 159.22705078 C130.95272767 162.87633482 134.89076219 166.3840723 139.05737305 169.72705078 C143.8961599 173.60941564 148.45025921 177.73232824 152.9675293 181.97900391 C156.39768296 185.19693846 159.9184758 188.24630983 163.55737305 191.22705078 C162.06190224 194.82426434 160.03030997 196.85802299 157.11987305 199.41455078 C156.22010742 200.20603516 155.3203418 200.99751953 154.39331055 201.81298828 C151.7089506 204.09802195 148.98884036 206.32667392 146.24487305 208.53955078 C142.0234093 211.95125562 138.01643238 215.52002706 134.05737305 219.22705078 C129.26358503 223.71566397 124.32842102 227.93615975 119.2097168 232.05517578 C109.98543123 238.63934367 109.98543123 238.63934367 105.24487305 248.10205078 C105.30952388 251.27229845 105.30952388 251.27229845 107.18237305 253.60205078 C110.2736843 255.71715848 111.85824454 255.62744845 115.55737305 255.22705078 C118.2638021 253.6448245 118.2638021 253.6448245 120.74487305 251.35205078 C121.69749023 250.52962891 122.65010742 249.70720703 123.6315918 248.85986328 C127.37774359 245.48882683 131.10763922 242.10145162 134.81518555 238.68798828 C137.45753187 236.31665183 140.16431471 234.07452081 142.93237305 231.85205078 C147.13551704 228.46319109 151.11940481 224.91465812 155.05737305 221.22705078 C159.85113739 216.7384148 164.78632765 212.51793974 169.9050293 208.39892578 C179.10468853 201.83629968 179.10468853 201.83629968 183.86987305 192.41455078 C183.40187797 187.64100103 180.75824579 185.27154944 177.2175293 182.19189453 C176.36030273 181.52287109 175.50307617 180.85384766 174.61987305 180.16455078 C170.26136813 176.67658613 166.12706652 173.04658047 162.05737305 169.22705078 C158.16201842 165.57776674 154.22398391 162.07002926 150.05737305 158.72705078 C145.89069361 155.38401728 141.95331183 151.87577371 138.05737305 148.22705078 C132.42420032 142.95472186 126.59964182 138.02987981 120.55737305 133.22705078 C119.25993164 132.12876953 119.25993164 132.12876953 117.9362793 131.00830078 C115.63222908 128.99688305 115.63222908 128.99688305 112.49487305 128.72705078 C109.49442227 129.02709451 109.49442227 129.02709451 107.18237305 130.85205078 Z " fill="#0A8EA0" transform="translate(87.442626953125,63.77294921875)"/>
<path d="M0 0 C3.68707686 -0.146259 7.37339982 -0.23438838 11.0625 -0.3125 C12.62000977 -0.3753418 12.62000977 -0.3753418 14.20898438 -0.43945312 C21.21779842 -0.55070414 24.80736851 0.19453925 30 5 C32.96287677 9.42415056 33.36045817 12.88426297 33.29296875 18.1484375 C33.28872391 18.80582916 33.28447906 19.46322083 33.28010559 20.14053345 C33.26344977 22.21912391 33.2258262 24.29670774 33.1875 26.375 C33.17243605 27.79295464 33.15875065 29.21092464 33.14648438 30.62890625 C33.11359038 34.0862589 33.06190165 37.54303103 33 41 C33.56847656 41.17233154 34.13695312 41.34466309 34.72265625 41.5222168 C39.88473241 43.15367847 44.33204861 45.07332019 49 47.8125 C50.11375 48.45832031 51.2275 49.10414063 52.375 49.76953125 C56.68008868 52.36459752 60.83732863 55.18417936 65 58 C65.92280762 57.47043701 65.92280762 57.47043701 66.86425781 56.93017578 C69.65885535 55.32731439 72.45441613 53.72614043 75.25 52.125 C76.21808594 51.56941406 77.18617188 51.01382813 78.18359375 50.44140625 C79.11816406 49.90644531 80.05273438 49.37148437 81.015625 48.8203125 C81.87446289 48.32805176 82.73330078 47.83579102 83.61816406 47.32861328 C89.37304934 44.1184774 93.36645928 43.21958344 100 44 C109.96846519 47.71705482 114.22885562 58.21925675 119.09448242 67.04858398 C123.38823244 74.80730909 127.9940523 82.37637509 132.59570312 89.95532227 C134.4136713 92.96076466 136.21375898 95.97560027 138 99 C138.58322021 99.98629395 139.16644043 100.97258789 139.76733398 101.98876953 C144.83075761 110.85144994 144.83075761 110.85144994 144.6875 116.25 C144.69136719 117.18328125 144.69523438 118.1165625 144.69921875 119.078125 C143.41673839 124.43731669 140.89333771 127.67453591 136.46606445 130.77392578 C133.45643302 132.58409017 130.40699428 134.27680714 127.3125 135.9375 C126.25482422 136.52595703 125.19714844 137.11441406 124.10742188 137.72070312 C116.32914126 142 116.32914126 142 114 142 C114.16242188 142.7425 114.32484375 143.485 114.4921875 144.25 C115.20409812 149.50718613 115.14419805 154.70133953 115.125 160 C115.12886719 161.06734375 115.13273437 162.1346875 115.13671875 163.234375 C115.13046636 168.26129735 115.07989207 173.06335054 114 178 C114.79277344 178.22300781 115.58554687 178.44601562 116.40234375 178.67578125 C121.07822324 180.39687044 125.24439557 182.71953467 129.5625 185.1875 C130.81836914 185.87295898 130.81836914 185.87295898 132.09960938 186.57226562 C138.30490253 190.11463805 142.61877943 193.59936703 144.83984375 200.67578125 C145.19975253 210.39331829 140.56498937 217.32191593 135.64794922 225.31738281 C133.85524068 228.23564673 132.09944239 231.17418678 130.34765625 234.1171875 C127.7910828 238.40722492 125.21671304 242.68576935 122.62890625 246.95703125 C120.3802889 250.6789009 118.17243354 254.41675709 116.02734375 258.19921875 C115.3621875 259.36505493 115.3621875 259.36505493 114.68359375 260.55444336 C113.8859513 261.95985059 113.09729221 263.37041827 112.3203125 264.78735352 C109.32995675 270.03338897 105.91510055 274.02829982 100 276 C91.08021302 277.42392585 85.07609547 273.94804852 77.5625 269.5 C75.44174119 268.27614279 73.31817145 267.05713955 71.19140625 265.84375 C70.26529541 265.29912109 69.33918457 264.75449219 68.38500977 264.19335938 C65.99733454 262.77626505 65.99733454 262.77626505 63 263 C60.83683334 264.30144133 58.76850092 265.64044465 56.6875 267.0625 C38.71114125 279 38.71114125 279 33 279 C33.02094727 279.87213135 33.04189453 280.7442627 33.06347656 281.64282227 C33.13201195 284.90627798 33.18197177 288.16895924 33.21972656 291.43286133 C33.23973246 292.84021134 33.26694662 294.24747938 33.30175781 295.65454102 C33.6595949 310.49951794 33.6595949 310.49951794 29 316 C23.48356148 320.95034845 18.28744028 320.47933922 11.125 320.25 C10.05507813 320.23195313 8.98515625 320.21390625 7.8828125 320.1953125 C5.25427822 320.14837439 2.62761087 320.08272933 0 320 C-0.02312143 307.500429 -0.04091406 295.00086305 -0.05181217 282.50127506 C-0.05704144 276.69786387 -0.06413987 270.89446725 -0.07543945 265.09106445 C-0.08626678 259.49549147 -0.0922765 253.89993255 -0.09487724 248.3043499 C-0.09673177 246.16441056 -0.10035291 244.02447204 -0.10573006 241.88453865 C-0.11293844 238.89835034 -0.11399103 235.91222093 -0.11352539 232.92602539 C-0.11712067 232.03194977 -0.12071594 231.13787415 -0.12442017 230.21670532 C-0.11405216 224.11405216 -0.11405216 224.11405216 1 223 C3.20597924 222.74918318 5.41502579 222.52526149 7.625 222.3125 C24.35456998 220.30302057 38.39998454 212.30645004 49.2578125 199.30859375 C60.91856092 183.85679483 63.3091135 167.89858529 62 149 C61.32120808 144.42024959 59.83957838 140.24007738 58 136 C57.45666016 134.68708984 57.45666016 134.68708984 56.90234375 133.34765625 C49.99396754 118.14922859 37.16712742 106.92374485 21.8125 100.75 C15.97391796 98.73120765 10.10528252 98.05258071 3.9921875 97.39453125 C1 97 1 97 0 96 C-0.0952822 93.01701786 -0.12552175 90.05723655 -0.11352539 87.07397461 C-0.11367142 86.13748581 -0.11381744 85.20099701 -0.1139679 84.23612976 C-0.11326837 81.12484461 -0.10547415 78.01361851 -0.09765625 74.90234375 C-0.09579221 72.75142957 -0.09436824 70.60051497 -0.09336853 68.44960022 C-0.08954225 62.77618242 -0.07971102 57.10279005 -0.06866455 51.42938232 C-0.0584528 45.64498234 -0.05387142 39.86057827 -0.04882812 34.07617188 C-0.03808885 22.71743672 -0.02101111 11.35872047 0 0 Z " fill="#0A8EA0" transform="translate(336,96)"/>
<path d="M0 0 C2.07065193 -0.00570839 4.14130072 -0.01267446 6.21194458 -0.02079773 C11.81533086 -0.03869287 17.41856022 -0.03756751 23.02196646 -0.03185534 C27.70867759 -0.02875805 32.39535883 -0.034862 37.0820657 -0.04089409 C48.14327759 -0.05492592 59.20441223 -0.05338934 70.265625 -0.04199219 C81.65710238 -0.03051373 93.04834425 -0.04458526 104.43979061 -0.07138866 C114.23884161 -0.09357757 124.03781887 -0.1001758 133.8368932 -0.09431225 C139.68118438 -0.09094896 145.52532464 -0.09331605 151.36959457 -0.11056328 C156.86744139 -0.12608101 162.36494057 -0.12202321 167.8627739 -0.10325813 C169.87343786 -0.09958555 171.88412787 -0.10264163 173.89476776 -0.11314392 C191.40919203 -0.19760071 204.10358308 2.43200611 217.34423828 14.71655273 C228.10146977 26.08268412 230.04920677 38.52633411 229.98191833 53.64840698 C229.98609664 55.18291491 229.99157688 56.71741975 229.99823815 58.25191891 C230.01264638 62.44760567 230.00846256 66.64309522 230.00107133 70.83879256 C229.99633048 75.37196792 230.00885763 79.90510118 230.01908875 84.43826294 C230.03626418 93.31100027 230.03711935 102.18366674 230.03187584 111.05641638 C230.02783053 118.27004136 230.02928199 125.48364545 230.0346241 132.69726944 C230.03537252 133.72488425 230.03612094 134.75249905 230.03689205 135.8112537 C230.03842356 137.89901359 230.03996191 139.98677348 230.04150701 142.07453336 C230.05522754 161.64282853 230.04979753 181.2110837 230.0383218 200.77937795 C230.02839017 218.67002045 230.04132969 236.56055951 230.06525599 254.45118605 C230.08965555 272.83461307 230.09925273 291.21799194 230.09260327 309.60143483 C230.08911292 319.91700761 230.09133094 330.23250085 230.10885429 340.54806137 C230.12358697 349.32953048 230.12419776 358.11086404 230.10678338 366.89233051 C230.09827977 371.36981069 230.09610818 375.84704884 230.11143494 380.3245163 C230.12531111 384.42914141 230.12048156 388.53331782 230.1011957 392.63791718 C230.09744433 394.11695932 230.10033264 395.59603767 230.11080735 397.07504748 C230.21534558 412.97549883 226.11859403 424.47376246 215.28173828 436.15405273 C202.30765931 448.43309176 188.04638221 448.85006672 171.18847656 448.80810547 C169.11782463 448.81381386 167.04717585 448.82077993 164.97653198 448.8289032 C159.3731457 448.84679834 153.76991634 448.84567298 148.16651011 448.83996081 C143.47979897 448.83686352 138.79311773 448.84296747 134.10641086 448.84899956 C123.04519897 448.86303139 111.98406433 448.86149481 100.92285156 448.85009766 C89.53137418 448.8386192 78.14013231 448.85269073 66.74868596 448.87949413 C56.94963495 448.90168304 47.1506577 448.90828126 37.35158336 448.90241772 C31.50729218 448.89905442 25.66315192 448.90142151 19.81888199 448.91866875 C14.32103517 448.93418648 8.82353599 448.93012868 3.32570267 448.9113636 C1.3150387 448.90769102 -0.6956513 448.9107471 -2.7062912 448.92124939 C-20.22071547 449.00570618 -32.91510651 446.37609936 -46.15576172 434.09155273 C-56.91299321 422.72542135 -58.86073021 410.28177136 -58.79344177 395.15969849 C-58.79762008 393.62519056 -58.80310031 392.09068572 -58.80976158 390.55618656 C-58.82416982 386.3604998 -58.819986 382.16501025 -58.81259477 377.96931291 C-58.80785392 373.43613754 -58.82038106 368.90300428 -58.83061218 364.36984253 C-58.84778762 355.4971052 -58.84864279 346.62443873 -58.84339928 337.75168909 C-58.83935396 330.5380641 -58.84080543 323.32446002 -58.84614754 316.11083603 C-58.84689596 315.08322122 -58.84764438 314.05560641 -58.84841548 312.99685176 C-58.849947 310.90909187 -58.85148535 308.82133199 -58.85303045 306.73357211 C-58.86675098 287.16527694 -58.86132097 267.59702177 -58.84984524 248.02872752 C-58.83991361 230.13808502 -58.85285313 212.24754596 -58.87677943 194.35691942 C-58.90117899 175.9734924 -58.91077617 157.59011353 -58.9041267 139.20667064 C-58.90063636 128.89109786 -58.90285438 118.57560461 -58.92037773 108.2600441 C-58.93511041 99.47857499 -58.9357212 90.69724143 -58.91830682 81.91577496 C-58.90980321 77.43829478 -58.90763162 72.96105663 -58.92295837 68.48358917 C-58.93683454 64.37896406 -58.93200499 60.27478765 -58.91271914 56.17018829 C-58.90896777 54.69114615 -58.91185608 53.2120678 -58.92233079 51.73305799 C-59.02686902 35.83260664 -54.93011746 24.33434301 -44.09326172 12.65405273 C-31.11918275 0.37501371 -16.85790565 -0.04196125 0 0 Z M-31.36279297 29.16186523 C-42.15551554 41.00703303 -42.55792276 54.84193409 -42.53947449 70.04119873 C-42.54134471 71.42548441 -42.54364626 72.80976956 -42.54633981 74.19405389 C-42.55243808 77.9837466 -42.55232655 81.77341719 -42.55114543 85.56311369 C-42.55094093 89.65595048 -42.55646496 93.74878026 -42.561203 97.84161377 C-42.56949931 105.85500632 -42.57225738 113.8683915 -42.57281538 121.88178799 C-42.57329103 128.39751396 -42.57534822 134.9132375 -42.57851601 141.42896271 C-42.58731984 159.91432034 -42.59193581 178.39967217 -42.59118553 196.88503191 C-42.59114558 197.88098652 -42.59110562 198.87694112 -42.59106445 199.90307617 C-42.59102357 200.900251 -42.59098269 201.89742582 -42.59094057 202.92481807 C-42.59053419 219.08252884 -42.60010248 235.24021631 -42.61420282 251.39792034 C-42.62857661 268.0003754 -42.63547245 284.6028191 -42.63460904 301.20528054 C-42.63427742 310.52152507 -42.63700939 319.83774516 -42.64778709 329.15398407 C-42.6569053 337.08639744 -42.65905651 345.01877529 -42.65227767 352.95119163 C-42.64901912 356.99519084 -42.64893168 361.03912195 -42.65763092 365.08311462 C-42.66552634 368.79171243 -42.66403366 372.50018847 -42.65534679 376.20878342 C-42.65309952 378.17192836 -42.6606165 380.13507718 -42.66858643 382.09820724 C-42.60922145 397.45168766 -40.4207873 409.87683206 -29.64794922 421.36108398 C-19.64584948 430.47449542 -7.96805633 432.52051285 5.15716553 432.5377655 C5.87423935 432.54003106 6.59131318 432.54229662 7.33011651 432.54463083 C9.70951508 432.55091149 12.08885583 432.55014531 14.46826172 432.54931641 C16.18394036 432.55231162 17.89961832 432.55571499 19.61529541 432.55949402 C24.26011099 432.56830175 28.90490813 432.57067078 33.54973125 432.5713098 C36.45649849 432.57202219 39.36326108 432.57416009 42.27002716 432.57680702 C52.42465002 432.58605009 62.57925979 432.59014325 72.73388672 432.58935547 C82.17688971 432.5887551 91.61983549 432.59930152 101.06282401 432.61509913 C109.18879836 432.6282056 117.31475409 432.63353806 125.44073892 432.63290006 C130.28568552 432.63264597 135.13058126 432.63544796 139.97551727 432.64607811 C144.53592298 432.6558114 149.09622975 432.65580266 153.6566391 432.64856148 C155.32221625 432.64752208 156.98779972 432.64983982 158.65336609 432.65592194 C175.48205844 432.71335275 189.74247026 431.66157407 202.55126953 419.64624023 C213.34399211 407.80107244 213.74639933 393.96617138 213.72795105 378.76690674 C213.72982127 377.38262106 213.73212282 375.9983359 213.73481637 374.61405158 C213.74091464 370.82435887 213.74080311 367.03468828 213.739622 363.24499178 C213.73941749 359.15215499 213.74494152 355.0593252 213.74967957 350.9664917 C213.75797587 342.95309915 213.76073395 334.93971396 213.76129194 326.92631748 C213.76176759 320.41059151 213.76382478 313.89486796 213.76699257 307.37914276 C213.7757964 288.89378513 213.78041237 270.4084333 213.7796621 251.92307356 C213.77962214 250.92711895 213.77958218 249.93116435 213.77954102 248.9050293 C213.77950013 247.90785447 213.77945925 246.91067964 213.77941713 245.8832874 C213.77901075 229.72557662 213.78857904 213.56788916 213.80267938 197.41018513 C213.81705318 180.80773007 213.82394901 164.20528637 213.82308561 147.60282493 C213.82275398 138.2865804 213.82548595 128.97036031 213.83626366 119.6541214 C213.84538186 111.72170803 213.84753307 103.78933018 213.84075423 95.85691383 C213.83749568 91.81291463 213.83740825 87.76898352 213.84610748 83.72499084 C213.8540029 80.01639304 213.85251023 76.30791699 213.84382335 72.59932205 C213.84157608 70.6361771 213.84909307 68.67302829 213.857063 66.70989823 C213.79769801 51.35641781 211.60926387 38.9312734 200.83642578 27.44702148 C190.83432604 18.33361005 179.15653289 16.28759262 166.03131104 16.27033997 C165.31423721 16.26807441 164.59716339 16.26580885 163.85836005 16.26347464 C161.47896148 16.25719397 159.09962074 16.25796016 156.72021484 16.25878906 C155.00453621 16.25579384 153.28885824 16.25239048 151.57318115 16.24861145 C146.92836557 16.23980372 142.28356843 16.23743468 137.63874531 16.23679566 C134.73197807 16.23608328 131.82521548 16.23394537 128.9184494 16.23129845 C118.76382654 16.22205538 108.60921677 16.21796222 98.45458984 16.21875 C89.01158686 16.21935037 79.56864107 16.20880395 70.12565255 16.19300634 C61.9996782 16.17989986 53.87372248 16.17456741 45.74773765 16.17520541 C40.90279104 16.1754595 36.0578953 16.17265751 31.21295929 16.16202736 C26.65255358 16.15229407 22.09224681 16.15230281 17.53183746 16.15954399 C15.86626032 16.16058339 14.20067684 16.15826565 12.53511047 16.15218353 C-4.29358188 16.09475272 -18.55399369 17.1465314 -31.36279297 29.16186523 Z " fill="#0A8EA0" transform="translate(90.40576171875,31.595947265625)"/>
</svg>
